<svg width="75" height="63" viewBox="0 0 75 63" fill="none" xmlns="http://www.w3.org/2000/svg">
            <g clip-path="url(#clip0_122_36)">
            <path d="M42.1875 14.4375C45.625 14.4375 48.4375 12.075 48.4375 9.1875C48.4375 6.3 45.625 3.9375 42.1875 3.9375C38.75 3.9375 35.9375 6.3 35.9375 9.1875C35.9375 12.075 38.75 14.4375 42.1875 14.4375ZM30.625 23.3625L21.875 60.375H28.4375L34.0625 39.375L40.625 44.625V60.375H46.875V40.6875L40.3125 35.4375L42.1875 27.5625C46.25 31.5 52.5 34.125 59.375 34.125V28.875C53.4375 28.875 48.4375 26.25 45.9375 22.575L42.8125 18.375C41.5625 16.8 39.6875 15.75 37.5 15.75C36.5625 15.75 35.9375 16.0125 35 16.0125L18.75 21.7875V34.125H25V25.2L30.625 23.3625Z" fill="black"/>
            </g>
            <defs>
            <clipPath id="clip0_122_36">
            <rect width="75" height="63" fill="white"/>
            </clipPath>
            </defs>
            </svg>